<svg width="180" height="190" viewBox="0 0 180 190" fill="none" xmlns="http://www.w3.org/2000/svg">
<path fill-rule="evenodd" clip-rule="evenodd" d="M62.914 1.3908C67.5736 0.970164 72.6236 0.514969 74.1362 0.37966C75.6488 0.244352 81.6598 0.0818341 87.4941 0.0178568C180.014 -0.992544 203.931 40.9008 155.646 119.397C136.224 150.97 109.973 182.713 98.9606 187.939C90.124 192.133 80.6501 189.894 71.7789 181.516C48.1504 159.199 15.3121 109.549 5.32587 81.0419C-10.7987 35.012 10.0569 6.1663 62.914 1.3908ZM69.0576 55.4953C70.8365 56.3847 72.1953 57.6941 73.1341 59.4235H87.1423C85.7588 54.0871 82.9176 49.9118 78.6188 46.8976C74.3694 43.8835 69.1318 42.3765 62.9059 42.3765C57.7671 42.3765 53.1965 43.5129 49.1941 45.7859C45.1918 48.0094 42.0541 51.1471 39.7812 55.1988C37.5576 59.2012 36.4459 63.7718 36.4459 68.9106C36.4459 74.0494 37.5576 78.62 39.7812 82.6223C42.0541 86.6247 45.1918 89.7623 49.1941 92.0353C53.2459 94.2588 57.8412 95.3706 62.98 95.3706C67.3282 95.3706 71.2318 94.5306 74.6906 92.8506C78.1494 91.1706 80.9906 88.9718 83.2141 86.2541C85.4871 83.5365 87.0929 80.5965 88.0318 77.4341V65.6494H60.46V74.9882H76.5435C75.5553 77.9529 73.9741 80.2259 71.8 81.8071C69.6753 83.3882 67.0565 84.1788 63.9435 84.1788C59.3976 84.1788 55.8153 82.8447 53.1965 80.1765C50.6271 77.4588 49.3424 73.7035 49.3424 68.9106C49.3424 64.4141 50.5776 60.8318 53.0482 58.1635C55.5188 55.4459 58.8047 54.0871 62.9059 54.0871C65.2776 54.0871 67.3282 54.5565 69.0576 55.4953ZM96.238 55.1988C94.0144 59.2012 92.9027 63.7718 92.9027 68.9106C92.9027 74.0494 94.0144 78.62 96.238 82.6223C98.4615 86.6247 101.55 89.7623 105.503 92.0353C109.505 94.2588 114.026 95.3706 119.066 95.3706C125.243 95.3706 130.53 93.7647 134.927 90.5529C139.325 87.2918 142.265 82.8447 143.747 77.2118H129.813C128.776 79.3859 127.293 81.0412 125.366 82.1776C123.489 83.3141 121.339 83.8824 118.918 83.8824C115.014 83.8824 111.852 82.5235 109.431 79.8059C107.01 77.0882 105.799 73.4565 105.799 68.9106C105.799 64.3647 107.01 60.7329 109.431 58.0153C111.852 55.2976 115.014 53.9388 118.918 53.9388C121.339 53.9388 123.489 54.5071 125.366 55.6435C127.293 56.78 128.776 58.4353 129.813 60.6094H143.747C142.265 54.9765 139.325 50.5294 134.927 47.2682C130.53 44.0071 125.243 42.3765 119.066 42.3765C114.026 42.3765 109.505 43.5129 105.503 45.7859C101.55 48.0094 98.4615 51.1471 96.238 55.1988Z" fill="#5787BE"/>
</svg>
